<svg xmlns="http://www.w3.org/2000/svg" width="752" height="752" version="1.1" style=""><rect id="backgroundrect" width="100%" height="100%" x="0" y="0" fill="none" stroke="none"/>
 
<g class="currentLayer" style=""><title>Layer 1</title><path d="m549.45 267.98h-71.848c-0.71094-1.2852-26.609-37.484-26.68-37.578-0.046875-0.0625-0.089844-0.11328-0.13672-0.17188-9.1797-10.434-17.555-15.723-24.906-15.723h-95.262c-10.633 0-17.012 6.0703-25.094 17.309-0.0625 0.09375-6.4023 9.2109-12.586 18.328-6.8633 10.105-10.195 15.105-11.668 17.836h-10.078c0.64844-2.1797 0.51172-9.0898 0.51172-9.9375 0-8.3984-6.8281-15.23-15.23-15.23h-20.672c-8.3906 0-15.227 6.8281-15.227 15.23 0 0.84766 0.51172 9.9375 0.51172 9.9375h-18.535c-10.383 0-18.828 8.4453-18.828 18.824v231.87c0 10.375 8.4453 18.824 18.828 18.824h346.9c10.383 0 18.828-8.4453 18.828-18.824l-0.003906-231.87c0.007812-10.375-8.4414-18.824-18.824-18.824zm-322.82-0.60937c-0.91016-0.92188-0.75781-8.4336-0.75781-9.3203 0-5.4805 4.457-9.9375 9.9375-9.9375h20.672c5.4727 0 9.9375 4.4531 9.9375 9.9375 0 0.88672 0.15234 8.3867-0.75391 9.3203-0.50391 0.5-38.539 0.5-39.035 0zm336.36 251.3c0 7.4531-6.0664 13.527-13.531 13.527h-346.9c-7.4648 0-13.531-6.0703-13.531-13.527l0.003907-231.87c0-7.457 6.0664-13.527 13.531-13.527h80.414c0.95703 0 1.8438-0.51563 2.3125-1.3555 0.13672-0.25 15.883-24.555 24.57-37.043 8.2031-11.414 13.25-15.078 20.77-15.078h95.262c3.9492 0 10.773 2.4062 20.855 13.852 11.871 15.996 26.602 37.914 26.738 38.172 0.44922 0.89063 1.3594 1.457 2.3594 1.457h73.617c7.4648 0 13.531 6.0664 13.531 13.527zm-230.22-247.4h87.383c4.375 0 7.9375-3.5547 7.9375-7.9375 0-4.375-3.5625-7.9375-7.9375-7.9375h-87.383c-4.375 0-7.9375 3.5625-7.9375 7.9375 0 4.3789 3.5625 7.9375 7.9375 7.9375zm0-10.582h87.383c1.457 0 2.6445 1.1836 2.6445 2.6445 0 1.457-1.1836 2.6445-2.6445 2.6445l-87.383-0.003906c-1.457 0-2.6445-1.1836-2.6445-2.6445 0.003907-1.4531 1.1914-2.6406 2.6445-2.6406zm44.594 42.793c-56.219 0-101.96 45.734-101.96 101.95 0 56.215 45.738 101.95 101.96 101.95 56.215 0 101.95-45.738 101.95-101.95 0-56.219-45.738-101.95-101.95-101.95zm0 198.61c-53.301 0-96.664-43.359-96.664-96.656 0-53.301 43.359-96.664 96.664-96.664 53.297 0 96.656 43.359 96.656 96.664 0 53.293-43.359 96.656-96.656 96.656zm0-171.21c-41.105 0-74.547 33.445-74.547 74.547 0 41.102 33.445 74.543 74.547 74.543 41.102 0 74.543-33.445 74.543-74.543 0-41.105-33.441-74.547-74.543-74.547zm0 143.79c-38.184 0-69.25-31.066-69.25-69.246 0-38.184 31.066-69.25 69.25-69.25 38.184 0 69.246 31.066 69.246 69.25 0 38.18-31.062 69.246-69.246 69.246zm138.4-173.45c-13.602 0-24.664 11.062-24.664 24.664 0 13.602 11.062 24.664 24.664 24.664s24.668-11.062 24.668-24.664c0-13.602-11.066-24.664-24.668-24.664zm0 44.035c-10.68 0-19.371-8.6953-19.371-19.375 0-10.684 8.6914-19.375 19.371-19.375 10.684 0 19.375 8.6914 19.375 19.375 0 10.68-8.6914 19.375-19.375 19.375zm-259.29-36.398h-22.887c-4.1953 0-7.6016 3.8086-7.6016 8.4883s3.4102 8.4922 7.6016 8.4922h22.887c4.1914 0 7.6016-3.8125 7.6016-8.4922s-3.4102-8.4883-7.6016-8.4883zm0 11.684h-22.887c-1.2539 0-2.3125-1.4688-2.3125-3.1953 0-1.7344 1.0625-3.1953 2.3125-3.1953h22.887c1.25 0 2.3047 1.4648 2.3047 3.1953 0 1.7266-1.0586 3.1953-2.3047 3.1953z" id="svg_1" class="" fill-opacity="1" fill="#5d4b85"/></g></svg>