<svg xmlns="http://www.w3.org/2000/svg" width="256" height="256" fill="#000000"><rect id="backgroundrect" width="100%" height="100%" x="0" y="0" fill="none" stroke="none"/><g class="currentLayer" style=""><title>Layer 1</title><rect width="256" height="256" fill="none" id="svg_1" class="" stroke="#5d4b85" stroke-opacity="1" opacity="0"/><circle cx="212" cy="108" r="20" fill="none" stroke="#5d4b85" stroke-linecap="round" stroke-linejoin="round" stroke-width="16" id="svg_2" class="" stroke-opacity="1"/><circle cx="44" cy="108" r="20" fill="none" stroke="#5d4b85" stroke-linecap="round" stroke-linejoin="round" stroke-width="16" id="svg_3" class="" stroke-opacity="1"/><circle cx="92" cy="60" r="20" fill="none" stroke="#5d4b85" stroke-linecap="round" stroke-linejoin="round" stroke-width="16" id="svg_4" class="" stroke-opacity="1"/><circle cx="164" cy="60" r="20" fill="none" stroke="#5d4b85" stroke-linecap="round" stroke-linejoin="round" stroke-width="16" id="svg_5" class="" stroke-opacity="1"/><path d="M183.2,155.9a43.6,43.6,0,0,1-20.6-26h0a36,36,0,0,0-69.2,0h0a43.6,43.6,0,0,1-20.6,26A32,32,0,0,0,88,216a32.4,32.4,0,0,0,12.5-2.5,71.8,71.8,0,0,1,55,0A32.4,32.4,0,0,0,168,216a32,32,0,0,0,15.2-60.1Z" fill="none" stroke="#5d4b85" stroke-linecap="round" stroke-linejoin="round" stroke-width="16" id="svg_6" class="" stroke-opacity="1"/></g></svg>