<svg xmlns="http://www.w3.org/2000/svg" width="752" height="752" version="1.1" style=""><rect id="backgroundrect" width="100%" height="100%" x="0" y="0" fill="none" stroke="none"/>
 <defs>
  <clipPath id="a">
   <path d="m200 139.21h352v473.58h-352z" id="svg_1"/>
  </clipPath>
 </defs>
 
<g class="currentLayer" style=""><title>Layer 1</title><g clip-path="url(#a)" id="svg_2" class="" fill-opacity="1" fill="#5d4b85">
  <path d="m433.91 158.61c0.57031-7.418 2.2812-13.125 7.418-19.398 12.555 4.5664 22.824 10.84 29.672 22.824 30.812 8.5586 41.082 43.934 45.645 71.895 16.547 23.965 17.688 51.922 13.125 79.883 15.406 35.375 17.117 71.324 6.2773 108.41 22.824 30.242 21.684 79.309-11.98 100.42-1.1406 40.512-61.051 38.801-89.012 36.516-120.96 103.27-324.66 49.641-190.57-102.13 3.4219-2.8516 14.836-11.98 19.969-8.5586 4.5664 2.8516 0.57031 14.266-1.1406 18.258-10.27 21.113-25.676 54.203-22.254 78.738 2.2812 17.117 14.266 26.246 34.234 29.098 31.953-2.2812 66.758-9.1289 87.871-35.375-31.953-81.594-11.98-158.62 36.516-228.23-2.2812-14.836-5.1367-35.375 3.9922-47.93-37.086-21.684-19.969-58.199 0.57031-85.586-6.8477-11.41-10.27-23.395-13.125-36.516 16.547 2.8516 29.098 7.9883 42.793 17.688zm-37.086-11.98c2.8516 11.41 6.2773 21.113 13.125 30.812-22.254 28.527-40.512 62.766 0.57031 84.445-12.555 13.695-9.1289 32.523-6.2773 49.641-49.07 70.75-69.039 146.07-35.945 228.23-22.824 29.098-58.199 36.516-93.004 38.801-19.398-0.57031-35.945-13.125-38.801-32.523-2.2812-18.828 4.5664-45.074 22.824-81.023 2.8516-7.418 3.9922-11.98 2.2812-13.125-1.1406-1.1406-5.707 1.1406-14.266 7.9883-128.95 150.06 72.465 192.29 186.01 95.285 27.387 1.7109 86.727 5.1367 86.156-34.805 34.805-20.539 34.805-67.898 11.98-97.57 10.84-36.516 9.6992-73.035-6.2773-108.41 4.5664-27.387 3.9922-55.918-12.555-78.738-3.9922-27.387-14.266-62.191-44.504-69.609-5.707-10.84-14.266-17.117-25.676-21.684-4.5664 6.8477-4.5664 15.406-4.5664 22.824-12.555-9.6992-24.535-17.117-41.082-20.539z" id="svg_3" fill="#5d4b85"/>
 </g></g></svg>