<svg xmlns="http://www.w3.org/2000/svg" width="752" height="752" version="1.1" style=""><rect id="backgroundrect" width="100%" height="100%" x="0" y="0" fill="none" stroke="none"/>
 
<g class="currentLayer" style=""><title>Layer 1</title><path d="m286.43 512.93c2.8008 0 5.0742 2.2734 5.0742 5.0742s-2.2734 5.0742-5.0742 5.0742c-10.699 0-20.402-4.3672-27.441-11.41-7.0352-7.0352-11.41-16.77-11.449-27.5l-0.17188-46.684-18.68-17.258c-2.0586-1.8945-2.1914-5.0977-0.29688-7.1562 0.15234-0.16406 0.30859-0.31641 0.47656-0.45312l18.664-15.676 0.011719-48.109c0.003906-10.719 4.3711-20.449 11.41-27.484 7.0469-7.0469 16.777-11.422 27.48-11.422 2.8008 0 5.0742 2.2734 5.0742 5.0742 0 2.8008-2.2734 5.0742-5.0742 5.0742-7.9023 0-15.094 3.2383-20.305 8.4531-5.2266 5.2266-8.4727 12.418-8.4727 20.309l-0.011718 50.145c0.10156 1.5586-0.51563 3.1406-1.8047 4.2188l-16.059 13.484 16.066 14.844-0.007812 0.007812c1.0039 0.92578 1.6328 2.2461 1.6328 3.7188l0.18359 48.914c0.027344 7.8945 3.2812 15.094 8.5156 20.324 5.207 5.207 12.371 8.4375 20.266 8.4375zm14.363-292.21c4.1914 0 7.9805 1.6992 10.727 4.4414 2.7461 2.7461 4.4453 6.5391 4.4453 10.727s-1.6992 7.9805-4.4453 10.727c-2.7461 2.7461-6.5352 4.4453-10.727 4.4453s-7.9844-1.6992-10.727-4.4453c-2.7461-2.7461-4.4414-6.5391-4.4414-10.727 0-4.1914 1.6992-7.9844 4.4414-10.727 2.7461-2.7461 6.5391-4.4414 10.727-4.4414zm7.1406 8.0312c-1.8281-1.8281-4.3516-2.957-7.1406-2.957s-5.3125 1.1289-7.1406 2.957c-1.8281 1.8281-2.957 4.3516-2.957 7.1406 0 2.7891 1.1289 5.3125 2.957 7.1406 1.8281 1.8281 4.3516 2.957 7.1406 2.957s5.3125-1.1328 7.1406-2.957c1.8281-1.8281 2.957-4.3516 2.957-7.1406 0-2.7891-1.1289-5.3125-2.957-7.1406zm-51.363-8.0312c4.1875 0 7.9805 1.6992 10.727 4.4414 2.7461 2.7461 4.4453 6.5391 4.4453 10.727s-1.6992 7.9805-4.4453 10.727c-2.7461 2.7461-6.5391 4.4453-10.727 4.4453-4.1914 0-7.9844-1.6992-10.727-4.4453-2.7461-2.7461-4.4414-6.5391-4.4414-10.727 0-4.1914 1.6992-7.9844 4.4414-10.727 2.7461-2.7461 6.5391-4.4414 10.727-4.4414zm7.1406 8.0312c-1.8281-1.8281-4.3516-2.957-7.1406-2.957-2.7891 0-5.3125 1.1289-7.1406 2.957-1.8281 1.8281-2.957 4.3516-2.957 7.1406 0 2.7891 1.1289 5.3125 2.957 7.1406 1.8281 1.8281 4.3516 2.957 7.1406 2.957 2.7891 0 5.3125-1.1328 7.1406-2.957 1.8281-1.8281 2.957-4.3516 2.957-7.1406 0-2.7891-1.1328-5.3125-2.957-7.1406zm-51.359-8.0312c4.1875 0 7.9805 1.6992 10.727 4.4414 2.7461 2.7461 4.4453 6.5391 4.4453 10.727s-1.6992 7.9805-4.4453 10.727c-2.7461 2.7461-6.5391 4.4453-10.727 4.4453-4.1914 0-7.9844-1.6992-10.727-4.4453-2.7461-2.7461-4.4414-6.5391-4.4414-10.727 0-4.1914 1.6992-7.9844 4.4414-10.727 2.7461-2.7461 6.5391-4.4414 10.727-4.4414zm7.1406 8.0312c-1.8281-1.8281-4.3516-2.957-7.1406-2.957-2.7891 0-5.3125 1.1289-7.1406 2.957-1.8281 1.8281-2.957 4.3516-2.957 7.1406 0 2.7891 1.1289 5.3125 2.957 7.1406 1.8281 1.8281 4.3516 2.957 7.1406 2.957 2.7891 0 5.3125-1.1328 7.1406-2.957 1.8281-1.8281 2.957-4.3516 2.957-7.1406 0-2.7891-1.1328-5.3125-2.957-7.1406zm367.93 52.621h-422.84v236.69c0 9.1172 3.7344 17.41 9.7461 23.422 6.0156 6.0156 14.309 9.7461 23.422 9.7461h356.5c9.1172 0 17.41-3.7344 23.422-9.7461 6.0156-6.0156 9.7461-14.309 9.7461-23.422v-236.69zm-422.84-10.148h422.84v-37.266c0-9.1172-3.7344-17.41-9.7461-23.422-6.0156-6.0156-14.309-9.7461-23.422-9.7461h-356.5c-9.1172 0-17.41 3.7344-23.422 9.7461-6.0117 6.0156-9.7461 14.309-9.7461 23.422v37.266zm33.172-80.586h356.5c11.918 0 22.75 4.8711 30.598 12.723 7.8477 7.8477 12.723 18.68 12.723 30.598v284.11c0 11.918-4.8711 22.75-12.723 30.598-7.8477 7.8477-18.68 12.723-30.598 12.723h-356.5c-11.918 0-22.75-4.8711-30.598-12.723-7.8477-7.8477-12.723-18.68-12.723-30.598v-284.11c0-11.918 4.8711-22.75 12.723-30.598 7.8477-7.8477 18.68-12.723 30.598-12.723zm267.82 332.45c-2.8008 0-5.0742-2.2734-5.0742-5.0742s2.2734-5.0742 5.0742-5.0742c7.8945 0 15.059-3.2305 20.266-8.4336 5.2344-5.2344 8.4844-12.43 8.5156-20.324l0.18359-48.918c0-1.4688 0.62891-2.793 1.6328-3.7188l-0.007813-0.007812 16.066-14.844-16.059-13.488c-1.2891-1.0781-1.9062-2.6602-1.8047-4.2188l-0.011719-50.145c0-7.8906-3.2461-15.082-8.4766-20.309-5.2109-5.2148-12.402-8.4531-20.305-8.4531-2.8008 0-5.0742-2.2734-5.0742-5.0742 0-2.8008 2.2734-5.0742 5.0742-5.0742 10.703 0 20.434 4.375 27.48 11.422 7.0352 7.0391 11.406 16.766 11.41 27.484l0.011718 48.105 18.664 15.676c0.16406 0.14062 0.32422 0.29297 0.47656 0.45703 1.8945 2.0586 1.7617 5.2617-0.29688 7.1562l-18.68 17.258-0.17188 46.684c-0.039063 10.73-4.4141 20.465-11.449 27.5-7.0391 7.0391-16.742 11.41-27.441 11.41zm-24.484-137.27-3.4219-4.2227-96.273 78.195 3.4219 4.2266zm-6.6094-8.1523-6.2969-7.7695-96.273 78.195 6.2969 7.7695zm-9.4844-11.699-3.7695-4.6484-96.273 78.199 3.7656 4.6484 96.273-78.195zm23 22.93-0.039063 0.035157-101.39 82.359c-0.30078 0.26562-0.65234 0.48438-1.0508 0.63281l-31.145 11.727c-0.0625 0.023437-0.125 0.050781-0.1875 0.074219l-22.898 8.1758c-0.88672 0.3125-1.9023 0.25781-2.7891-0.23828-1.6289-0.91016-2.207-2.9727-1.2969-4.5977l12.035-21.352c0.09375-0.1875 0.20703-0.36719 0.33984-0.53516l17.711-27.82c0.17188-0.30078 0.39453-0.57812 0.66406-0.82031l0.015625-0.015626 0.042969-0.039062 0.015625-0.011719 0.011719-0.011719 0.046875-0.035156 0.007812-0.007812 101.51-82.449 0.019531-0.015625 0.011719-0.011719 12.574-10.188c2.6953-2.1836 6.0312-3.0703 9.2383-2.7383 3.207 0.33203 6.2969 1.8867 8.4805 4.5781l12.52 15.414c2.1836 2.6914 3.0664 6.0234 2.7344 9.2227-0.33203 3.2031-1.8828 6.2852-4.5703 8.4688l-12.582 10.195-0.023437 0.019532zm-145.24 84.324-5.2227 9.2656 9.875-3.5273-4.6562-5.7422zm3.6406-6.2188 7.7344 9.5273 24.629-9.2734-14.5-17.883-3.7188-4.582zm120.11-109.96 19.887 24.48 9.9609-8.0742c1.2422-1.0078 1.9609-2.4375 2.1133-3.9219 0.15625-1.4922-0.25-3.0391-1.2539-4.2773l-12.52-15.414c-1.0117-1.2422-2.4453-1.9648-3.9375-2.1172-1.5-0.15625-3.0508 0.25-4.293 1.2578l-9.9531 8.0664z" id="svg_1" class="" fill-opacity="1" fill="#5d4b85"/></g></svg>