<svg xmlns="http://www.w3.org/2000/svg" width="752" height="752" version="1.1"><rect id="backgroundrect" width="100%" height="100%" x="0" y="0" fill="none" stroke="none"/>
 
<g class="currentLayer" style=""><title>Layer 1</title><path d="m534.84 236.02 15.238-14.688s-40.57-74.477-179.2-74.477c-133.25 0-179.43 73.078-179.43 73.078l16.219 14.051c-26.617 36.336-43.512 73.176-50.219 109.5-5.3789 29.211-4.2305 58.129 3.4297 85.941 13.043 47.387 42.785 76.898 43.66 76.898h0.074219v63.391h35.418c4.2109 16.754 11.633 35.426 23.789 35.426 20.27 0 31.211-53.988 31.211-104.79 0-50.809-10.941-104.8-31.211-104.8-12.156 0-19.582 18.672-23.789 35.426h-35.418v66.949c-6.8203-7.7539-26.895-32.855-37.219-70.641-11.488-42.031-12.891-108.86 45.477-188.79l16.254 14.074s61.695-62.062 140.88-60.039c92.719 2.3711 142.61 64.918 142.61 64.918l17.281-16.652c94.281 119.84 63.465 207.02 19.281 258.59l-0.003906-68.402h-35.301c-6.9805-25.379-17.355-39.32-29.348-39.32-10.617 0-20.254 11.375-27.141 32.031-6.4922 19.488-10.438 45.332-10.074 72.766 1.1445 85.828 26.598 104.79 37.215 104.79 10.555 0 20.09-11.168 26.977-31.535h37.672v-62.598c82.699-86.289 47.902-194.12-14.34-271.09zm-323.38 201.81h33.969s6.9727-35.895 18.391-35.43c10.164 0.41797 24.359 37.266 24.359 97.957 0 60.68-14.227 97.055-24.359 97.945-11 0.97266-18.391-35.426-18.391-35.426h-33.969zm301.64-190.37c-4.6367-5.0352-52.406-59.594-143.11-61.785-79.008-1.9102-136 52.938-141.13 57.609l-28.156-24.379c38.359-45.691 108.65-64.238 170.23-65.203 120.29-1.8867 166.63 61.371 170.36 66.574zm29.219 315.41h-35.816s-9.1211 32.395-21.988 31.531c-14.332-0.95313-30.367-40.223-30.367-97.945 0-57.727 16.02-97.258 30.367-97.957 16.418-0.78125 24.07 39.324 24.07 39.324h33.727l0.003907 125.05z" id="svg_1" class="selected" fill-opacity="1" fill="#5d4b85"/></g></svg>