<svg xmlns="http://www.w3.org/2000/svg" width="256" height="256" fill="#000000"><rect id="backgroundrect" width="100%" height="100%" x="0" y="0" fill="none" stroke="none"/><g class="currentLayer" style=""><title>Layer 1</title><rect width="256" height="256" fill="none" id="svg_1" class="selected" stroke-opacity="1" stroke="#5d4b85" opacity="0"/><path d="M225.5,136h-32a16,16,0,0,0-16,16v40a16,16,0,0,0,16,16h16a16,16,0,0,0,16-16V136a96,96,0,0,0-96.8-96A96,96,0,0,0,32,136v56a16,16,0,0,0,16,16H64a16,16,0,0,0,16-16V152a16,16,0,0,0-16-16H32" fill="none" stroke="#5d4b85" stroke-linecap="round" stroke-linejoin="round" stroke-width="16" id="svg_2" class="" stroke-opacity="1"/></g></svg>