<svg xmlns="http://www.w3.org/2000/svg" width="256" height="256" fill="#000000"><rect id="backgroundrect" width="100%" height="100%" x="0" y="0" fill="none" stroke="none"/><g class="currentLayer" style=""><title>Layer 1</title><rect width="256" height="256" fill="none" id="svg_1" class="selected" stroke-opacity="1" stroke="#5d4b85"/><path d="M40,176V72A16,16,0,0,1,56,56H200a16,16,0,0,1,16,16V176" fill="none" stroke="#5d4b85" stroke-linecap="round" stroke-linejoin="round" stroke-width="16" id="svg_2" class="selected" stroke-opacity="1"/><path d="M24,176H232a0,0,0,0,1,0,0v16a16,16,0,0,1-16,16H40a16,16,0,0,1-16-16V176A0,0,0,0,1,24,176Z" fill="none" stroke="#5d4b85" stroke-linecap="round" stroke-linejoin="round" stroke-width="16" id="svg_3" class="selected" stroke-opacity="1"/><line x1="144" y1="88" x2="112" y2="88" fill="none" stroke="#5d4b85" stroke-linecap="round" stroke-linejoin="round" stroke-width="16" id="svg_4" class="selected" stroke-opacity="1"/></g></svg>