<svg xmlns="http://www.w3.org/2000/svg" width="752" height="752" version="1.1"><rect id="backgroundrect" width="100%" height="100%" x="0" y="0" fill="none" stroke="none"/>
 
<g class="currentLayer" style=""><title>Layer 1</title><path d="m551.18 456.75v-188.25c0-9.3672-7.4844-16.984-16.68-16.984h-318.83c-9.1953 0-16.68 7.6133-16.68 16.984v188.25c0 9.3672 7.4844 16.984 16.68 16.984h318.82c9.1992-0.003906 16.684-7.625 16.684-16.988zm-346.35 0v-188.25c0-6.1484 4.8633-11.148 10.84-11.148h318.82c5.9805 0 10.84 5 10.84 11.148v188.25c0 6.1406-4.8594 11.148-10.84 11.148l-318.82-0.003907c-5.9727-0.003906-10.84-5.0039-10.84-11.148zm391.95 34.375c-0.80078-0.83203-21.34-1.8242-21.34-1.8242 2.5-2.918 4.0312-6.707 4.0312-10.84v-235.49c0-9.1953-7.4844-16.68-16.68-16.68h-370.82c-9.1914 0-16.68 7.4844-16.68 16.68v235.49c0 4.1328 1.5234 7.9219 4.0352 10.84h-13.68c-10.168-0.14844-12.039 4.0664-12.039 15.098 0 5.1953 22.629 21.324 33.254 21.324h377.96c8.7891 0 28.914-15.281 32.855-18.34 0.71484-0.55078 1.4688-13.82-0.89844-16.258zm-415.65-12.664v-235.49c0-5.9805 4.8594-10.84 10.84-10.84h370.82c5.9805 0 10.844 4.8594 10.844 10.84v235.49c0 5.9766-4.8633 10.84-10.844 10.84h-370.82c-5.9805 0-10.84-4.8633-10.84-10.84zm248 20.496c0 2.0977-1.7109 3.8125-3.8125 3.8125h-98.16c-2.1016 0-3.8164-1.7109-3.8164-3.8125s1.7109-3.8164 3.8164-3.8164h98.164c2.0938 0 3.8086 1.7148 3.8086 3.8164zm163.86 4.668c-8.6992 6.6211-23.121 16.258-28.164 16.258h-377.96c-4.7266 0-18.086-9.8164-26.707-17.273 0.070313-6.1094 0.78516-7.4688 5.4844-7.4688h152.64c-2.543 9.2539 3.5547 13.469 8.875 13.469h98.164c5.3242 0 12.406-5.5078 8.8594-13.469h157.98c0.27344 0 0.41797 0.042969 0.42578 0.042969 0.64844 0.65234 0.41406 7.7969 0.40234 8.4414z" id="svg_1" class="selected" fill-opacity="1" fill="#5d4b85"/></g></svg>