<svg xmlns="http://www.w3.org/2000/svg" width="256" height="256" fill="#000000"><rect id="backgroundrect" width="100%" height="100%" x="0" y="0" fill="none" stroke="none"/><g class="currentLayer" style=""><title>Layer 1</title><rect width="256" height="256" fill="none" id="svg_1" class="" stroke="#5d4b85" stroke-opacity="1"/><path d="M40,56H216V176a8,8,0,0,1-8,8H168a8,8,0,0,1-8-8V152H96v56a8,8,0,0,1-8,8H48a8,8,0,0,1-8-8Z" fill="none" stroke="#5d4b85" stroke-linecap="round" stroke-linejoin="round" stroke-width="16" id="svg_2" class="" stroke-opacity="1"/><line x1="96" y1="120" x2="40" y2="120" fill="none" stroke="#5d4b85" stroke-linecap="round" stroke-linejoin="round" stroke-width="16" id="svg_3" class="" stroke-opacity="1"/><line x1="96" y1="56" x2="96" y2="152" fill="none" stroke="#5d4b85" stroke-linecap="round" stroke-linejoin="round" stroke-width="16" id="svg_4" class="" stroke-opacity="1"/><line x1="160" y1="120" x2="216" y2="120" fill="none" stroke="#5d4b85" stroke-linecap="round" stroke-linejoin="round" stroke-width="16" id="svg_5" class="" stroke-opacity="1"/><line x1="160" y1="56" x2="160" y2="152" fill="none" stroke="#5d4b85" stroke-linecap="round" stroke-linejoin="round" stroke-width="16" id="svg_6" class="" stroke-opacity="1"/></g></svg>