<svg xmlns="http://www.w3.org/2000/svg" width="752" height="752" version="1.1" style=""><rect id="backgroundrect" width="100%" height="100%" x="0" y="0" fill="none" stroke="none"/>
 <defs>
  <clipPath id="a">
   <path d="m139.21 175h473.58v402h-473.58z" id="svg_1"/>
  </clipPath>
 </defs>
 
 
 
 
 
 
 
 
 
 
 
 
 
 
 
 
 
 
 
 
 
 
 
 
 
 
 
 
 
 
 
 
 
 
 
 
 
 
 
 
<g class="currentLayer" style=""><title>Layer 1</title><g clip-path="url(#a)" id="svg_2" class="" fill-opacity="1" fill="#5d4b85">
  <path d="m600.78 175.18h-449.55c-6.625 0-12.016 4.8906-12.016 10.906v379.83c0 6.0195 5.3906 10.918 12.016 10.918h449.55c6.6211 0 12.016-4.8906 12.016-10.918v-379.83c0-6.0156-5.3945-10.906-12.016-10.906zm-309.08 397.65h-140.47c-4.418 0-8.0078-3.1016-8.0078-6.9102v-348.65h148.48zm155.22 0h-151.21v-355.56h151.21zm161.86-6.9102c0 3.8086-3.5898 6.9102-8.0078 6.9102h-149.86v-355.56h157.86zm0-352.66h-465.57v-27.176c0-3.8086 3.5898-6.9062 8.0078-6.9062h449.55c4.4219 0 8.0078 3.0977 8.0078 6.9062z" id="svg_3" fill="#5d4b85"/>
 </g><path d="m162.24 187.84c-4.75 0-8.6211 3.8711-8.6211 8.6211-0.003906 4.7539 3.8633 8.6211 8.6211 8.6211 4.7539 0 8.6211-3.8633 8.6211-8.6211-0.003906-4.7539-3.8672-8.6211-8.6211-8.6211zm0 13.23c-2.543 0-4.6133-2.0742-4.6133-4.6172s2.0703-4.6133 4.6133-4.6133c2.5469 0 4.6172 2.0742 4.6172 4.6172s-2.0742 4.6133-4.6172 4.6133z" id="svg_4" class="" fill-opacity="1" fill="#5d4b85"/><path d="m185.27 187.84c-4.7539 0-8.6211 3.8711-8.6211 8.6211 0 4.7539 3.8633 8.6211 8.6211 8.6211 4.75 0 8.6211-3.8633 8.6211-8.6211 0-4.7539-3.8711-8.6211-8.6211-8.6211zm0 13.234c-2.5469 0-4.6172-2.0742-4.6172-4.6172s2.0703-4.6172 4.6172-4.6172c2.543 0 4.6172 2.0742 4.6172 4.6172 0.003906 2.543-2.0703 4.6172-4.6172 4.6172z" id="svg_5" class="" fill-opacity="1" fill="#5d4b85"/><path d="m208.3 187.84c-4.7539 0-8.6211 3.8711-8.6211 8.6211 0 4.7539 3.8711 8.6211 8.6211 8.6211s8.6211-3.8633 8.6211-8.6211c0-4.7539-3.8672-8.6211-8.6211-8.6211zm0 13.234c-2.543 0-4.6172-2.0742-4.6172-4.6172s2.0742-4.6172 4.6172-4.6172 4.6172 2.0742 4.6172 4.6172-2.0742 4.6172-4.6172 4.6172z" id="svg_6" class="" fill-opacity="1" fill="#5d4b85"/><path d="m157.52 299.04h0.019531c2.1875 2.2773 5.2578 3.707 8.668 3.707h99.461c6.625 0 12.02-5.3906 12.02-12.016v-46.059c-0.003906-6.625-5.3945-12.016-12.023-12.016h-99.465c-6.625 0-12.02 5.3906-12.02 12.016v46.059c0 3.2109 1.2773 6.1289 3.3398 8.2891zm13.02-62.379h95.125c4.418 0 8.0078 3.5938 8.0078 8.0117v46.059h0.003906c0 4.418-3.5938 8.0078-8.0078 8.0078l-95.129 0.003907z" id="svg_7" class="" fill-opacity="1" fill="#5d4b85"/><path d="m205.87 256.99h-23.586c-1.1016 0-2 0.89453-2 2 0 1.1094 0.89453 2.0039 2 2.0039h23.586c1.1094 0 2.0039-0.89453 2.0039-2.0039 0-1.1055-0.89453-2-2.0039-2z" id="svg_8" class="" fill-opacity="1" fill="#5d4b85"/><path d="m248.15 256.99h-32.266c-1.1016 0-2.0039 0.89453-2.0039 2 0 1.1094 0.89453 2.0039 2.0039 2.0039h32.262c1.1094 0 2.0039-0.89453 2.0039-2.0039 0.003906-1.1055-0.89063-2-2-2z" id="svg_9" class="" fill-opacity="1" fill="#5d4b85"/><path d="m182.29 250.98h33.254c1.1094 0 2.0039-0.89453 2.0039-2.0039 0-1.1016-0.89453-2.0039-2.0039-2.0039h-33.254c-1.1016 0-2 0.89453-2 2.0039-0.003906 1.1094 0.89453 2.0039 2 2.0039z" id="svg_10" class="" fill-opacity="1" fill="#5d4b85"/><path d="m249.14 246.97h-23.578c-1.1016 0-2.0039 0.89453-2.0039 2.0039s0.89453 2.0039 2.0039 2.0039h23.578c1.1094 0 2.0039-0.89453 2.0039-2.0039s-0.89453-2.0039-2.0039-2.0039z" id="svg_11" class="" fill-opacity="1" fill="#5d4b85"/><path d="m199.2 267h-16.906c-1.1016 0-2 0.89453-2 2.0039 0 1.1016 0.89453 2 2 2h16.906c1.1094 0 2.0039-0.89453 2.0039-2-0.007813-1.1094-0.90234-2.0039-2.0039-2.0039z" id="svg_12" class="" fill-opacity="1" fill="#5d4b85"/><path d="m311.05 299.04h0.019531c2.1875 2.2773 5.2578 3.707 8.668 3.707h99.461c6.6172 0 12.016-5.3906 12.016-12.016v-46.059c0-6.625-5.3984-12.016-12.016-12.016h-99.469c-6.625 0-12.02 5.3906-12.02 12.016v46.059c0 3.2109 1.2773 6.1289 3.3398 8.2891zm13.02-62.379h95.125c4.4219 0 8.0078 3.5938 8.0078 8.0117v46.059c0 4.418-3.5977 8.0078-8.0078 8.0078l-95.125 0.003907z" id="svg_13" class="" fill-opacity="1" fill="#5d4b85"/><path d="m359.41 256.99h-23.586c-1.1094 0-2.0039 0.89453-2.0039 2 0 1.1094 0.89453 2.0039 2.0039 2.0039h23.586c1.1094 0 2.0039-0.89453 2.0039-2.0039 0-1.1055-0.89453-2-2.0039-2z" id="svg_14" class="" fill-opacity="1" fill="#5d4b85"/><path d="m401.69 256.99h-32.27c-1.1094 0-2.0039 0.89453-2.0039 2 0 1.1094 0.89453 2.0039 2.0039 2.0039h32.266c1.0938 0 2.0039-0.89453 2.0039-2.0039 0-1.1055-0.89844-2-2-2z" id="svg_15" class="" fill-opacity="1" fill="#5d4b85"/><path d="m335.82 250.98h33.254c1.1016 0 2.0039-0.89453 2.0039-2.0039 0-1.1016-0.89453-2.0039-2.0039-2.0039h-33.254c-1.1094 0-2.0039 0.89453-2.0039 2.0039 0 1.1094 0.89453 2.0039 2.0039 2.0039z" id="svg_16" class="" fill-opacity="1" fill="#5d4b85"/><path d="m402.67 246.97h-23.578c-1.1016 0-2.0039 0.89453-2.0039 2.0039s0.89844 2.0039 2.0039 2.0039h23.578c1.1094 0 2.0078-0.89453 2.0078-2.0039 0-1.1016-0.89453-2.0039-2.0078-2.0039z" id="svg_17" class="" fill-opacity="1" fill="#5d4b85"/><path d="m352.73 267h-16.906c-1.1094 0-2.0039 0.89453-2.0039 2.0039 0 1.1016 0.89453 2 2.0039 2h16.906c1.1016 0 2.0039-0.89453 2.0039-2-0.003907-1.1094-0.89844-2.0039-2.0039-2.0039z" id="svg_18" class="" fill-opacity="1" fill="#5d4b85"/><path d="m311.06 385.14h0.015625c2.1875 2.2773 5.2578 3.707 8.668 3.707h99.461c6.6172 0 12.016-5.3906 12.016-12.004v-46.066c0-6.625-5.3984-12.02-12.016-12.02l-99.469 0.003906c-6.625 0-12.02 5.3906-12.02 12.02v46.066c0.003906 3.1953 1.2773 6.1172 3.3438 8.2773zm13.016-62.375h95.125c4.4219 0 8.0078 3.5938 8.0078 8.0117v46.066c0 4.4102-3.5977 8-8.0078 8h-95.125z" id="svg_19" class="" fill-opacity="1" fill="#5d4b85"/><path d="m359.41 343.09h-23.586c-1.1094 0-2.0039 0.89453-2.0039 2.0039s0.89453 2.0078 2.0039 2.0078h23.586c1.1094 0 2.0039-0.89844 2.0039-2.0078 0-1.1016-0.89453-2.0039-2.0039-2.0039z" id="svg_20" class="" fill-opacity="1" fill="#5d4b85"/><path d="m401.69 343.1h-32.27c-1.1094 0-2.0039 0.89453-2.0039 2 0 1.1016 0.89453 2.0078 2.0039 2.0078h32.266c1.0938 0 2.0039-0.89453 2.0039-2.0078 0-1.1016-0.89844-2-2-2z" id="svg_21" class="" fill-opacity="1" fill="#5d4b85"/><path d="m335.82 337.09h33.254c1.1016 0 2.0039-0.89844 2.0039-2.0117 0-1.0938-0.89453-2-2.0039-2h-33.254c-1.1094 0-2.0039 0.89453-2.0039 2s0.89453 2.0117 2.0039 2.0117z" id="svg_22" class="" fill-opacity="1" fill="#5d4b85"/><path d="m402.67 333.08h-23.578c-1.1016 0-2.0039 0.89453-2.0039 2 0 1.1094 0.89844 2.0117 2.0039 2.0117h23.578c1.1094 0 2.0078-0.89844 2.0078-2.0117 0-1.1016-0.89453-2-2.0078-2z" id="svg_23" class="" fill-opacity="1" fill="#5d4b85"/><path d="m352.73 353.11h-16.906c-1.1094 0-2.0039 0.89062-2.0039 2.0039 0 1.1133 0.89453 2.0078 2.0039 2.0078h16.906c1.1016 0 2.0039-0.89453 2.0039-2.0078-0.003907-1.1133-0.89844-2.0039-2.0039-2.0039z" id="svg_24" class="" fill-opacity="1" fill="#5d4b85"/><path d="m470.6 299.04h0.019532c2.1836 2.2773 5.2539 3.707 8.6562 3.707h99.461c6.625 0 12.016-5.3906 12.016-12.016v-46.059c0-6.625-5.3906-12.016-12.016-12.016h-99.461c-6.6172 0-12.016 5.3906-12.016 12.016v46.059c0 3.2109 1.2852 6.1289 3.3398 8.2891zm13.016-62.379h95.125c4.4297 0 8.0117 3.5938 8.0117 8.0117v46.059c0 4.418-3.5938 8.0078-8.0117 8.0078l-95.125 0.003907z" id="svg_25" class="" fill-opacity="1" fill="#5d4b85"/><path d="m518.96 256.99h-23.59c-1.1016 0-2 0.89453-2 2 0 1.1094 0.89062 2.0039 2 2.0039h23.59c1.0938 0 2-0.89453 2-2.0039-0.015625-1.1055-0.90625-2-2-2z" id="svg_26" class="" fill-opacity="1" fill="#5d4b85"/><path d="m561.22 256.99h-32.262c-1.0977 0-2.0078 0.89453-2.0078 2 0 1.1094 0.89453 2.0039 2.0078 2.0039h32.262c1.0977 0 2-0.89453 2-2.0039 0-1.1055-0.88672-2-2-2z" id="svg_27" class="" fill-opacity="1" fill="#5d4b85"/><path d="m495.36 250.98h33.25c1.1016 0 2.0078-0.89453 2.0078-2.0039 0-1.1016-0.89453-2.0039-2.0078-2.0039h-33.25c-1.0977 0-2 0.89453-2 2.0039 0 1.1094 0.89844 2.0039 2 2.0039z" id="svg_28" class="" fill-opacity="1" fill="#5d4b85"/><path d="m562.21 246.97h-23.586c-1.0977 0-2 0.89453-2 2.0039s0.89062 2.0039 2 2.0039h23.586c1.0977 0 2.0039-0.89453 2.0039-2.0039-0.003906-1.1094-0.89062-2.0039-2.0039-2.0039z" id="svg_29" class="" fill-opacity="1" fill="#5d4b85"/><path d="m512.27 267h-16.906c-1.0977 0-2 0.89453-2 2.0039 0 1.1016 0.89062 2 2 2h16.906c1.0977 0 2-0.89453 2-2-0.003906-1.1094-0.89453-2.0039-2-2.0039z" id="svg_30" class="" fill-opacity="1" fill="#5d4b85"/><path d="m470.6 385.14h0.019532c2.1836 2.2773 5.2539 3.707 8.6562 3.707h99.461c6.625 0 12.016-5.3906 12.016-12.004v-46.066c0-6.6289-5.3906-12.02-12.016-12.02l-99.461 0.003906c-6.6172 0-12.016 5.3906-12.016 12.02v46.066c0 3.207 1.2852 6.1172 3.3398 8.2773zm14.023-62.375h94.113c4.4297 0 8.0117 3.5938 8.0117 8.0117v46.066c0 4.4102-3.5938 8-8.0117 8h-94.113z" id="svg_31" class="" fill-opacity="1" fill="#5d4b85"/><path d="m519.95 343.1h-23.586c-1.0977 0-2.0039 0.89453-2.0039 2 0 1.1016 0.89062 2.0078 2.0039 2.0078h23.586c1.0977 0 2-0.89453 2-2.0078-0.007813-1.1016-0.89453-2-2-2z" id="svg_32" class="" fill-opacity="1" fill="#5d4b85"/><path d="m562.22 343.1h-32.262c-1.1094 0-2.0078 0.89453-2.0078 2 0 1.1016 0.89453 2.0078 2.0078 2.0078h32.262c1.1094 0 2.0039-0.89453 2.0039-2.0078 0-1.1016-0.89062-2-2.0039-2z" id="svg_33" class="" fill-opacity="1" fill="#5d4b85"/><path d="m496.36 337.09h33.254c1.0977 0 2-0.89844 2-2.0117 0-1.0938-0.89063-2-2-2h-33.254c-1.1016 0-2.0039 0.89453-2.0039 2s0.89844 2.0117 2.0039 2.0117z" id="svg_34" class="" fill-opacity="1" fill="#5d4b85"/><path d="m563.22 333.08h-23.586c-1.1016 0-2.0039 0.89453-2.0039 2 0 1.1016 0.89453 2.0117 2.0039 2.0117h23.586c1.1016 0 2-0.89844 2-2.0117-0.003906-1.1016-0.89453-2-2-2z" id="svg_35" class="" fill-opacity="1" fill="#5d4b85"/><path d="m513.27 353.11h-16.902c-1.1016 0-2.0039 0.89062-2.0039 2.0039 0 1.1133 0.89453 2.0078 2.0039 2.0078h16.902c1.0977 0 2.0078-0.89453 2.0078-2.0078 0-1.1133-0.90234-2.0039-2.0078-2.0039z" id="svg_36" class="" fill-opacity="1" fill="#5d4b85"/><path d="m470.6 471.26h0.019532c2.1836 2.2773 5.2539 3.7031 8.6562 3.7031h99.461c6.625 0 12.016-5.3945 12.016-12.016v-46.059c0-6.625-5.3906-12.012-12.016-12.012h-99.461c-6.6172 0-12.016 5.3828-12.016 12.012v46.059c0 3.2148 1.2852 6.1328 3.3398 8.2891zm13.016-62.383h95.125c4.4297 0 8.0117 3.5977 8.0117 8.0078v46.066c0 4.418-3.5938 8.0039-8.0117 8.0039l-95.125-0.003906z" id="svg_37" class="" fill-opacity="1" fill="#5d4b85"/><path d="m519.95 429.21h-23.586c-1.0977 0-2.0039 0.89062-2.0039 2s0.89062 2.0039 2.0039 2.0039h23.586c1.0977 0 2-0.89063 2-2.0039-0.007813-1.1055-0.89453-2-2-2z" id="svg_38" class="" fill-opacity="1" fill="#5d4b85"/><path d="m562.22 429.21h-32.262c-1.1094 0-2.0078 0.89062-2.0078 2s0.89453 2.0039 2.0078 2.0039h32.262c1.1094 0 2.0039-0.89063 2.0039-2.0039 0-1.1055-0.89062-2-2.0039-2z" id="svg_39" class="" fill-opacity="1" fill="#5d4b85"/><path d="m496.36 423.2h33.254c1.0977 0 2-0.89062 2-2.0039 0-1.1016-0.89063-2-2-2h-33.254c-1.1016 0-2.0039 0.89063-2.0039 2 0 1.1094 0.89844 2.0039 2.0039 2.0039z" id="svg_40" class="" fill-opacity="1" fill="#5d4b85"/><path d="m563.22 419.2h-23.586c-1.1016 0-2.0039 0.89063-2.0039 2 0 1.1094 0.89453 2.0039 2.0039 2.0039h23.586c1.1016 0 2-0.89062 2-2.0039-0.003906-1.1016-0.89453-2-2-2z" id="svg_41" class="" fill-opacity="1" fill="#5d4b85"/><path d="m513.27 439.23h-16.902c-1.1016 0-2.0039 0.89062-2.0039 2 0 1.1016 0.89453 2.0078 2.0039 2.0078h16.902c1.0977 0 2.0078-0.89453 2.0078-2.0078 0-1.1172-0.90234-2-2.0078-2z" id="svg_42" class="" fill-opacity="1" fill="#5d4b85"/></g></svg>