<svg xmlns="http://www.w3.org/2000/svg" width="752" height="752" version="1.1"><rect id="backgroundrect" width="100%" height="100%" x="0" y="0" fill="none" stroke="none"/>
 
<g class="currentLayer" style=""><title>Layer 1</title><path d="m347.53 177.1c-109.77 0-198.85 89.141-198.85 198.98 0 109.84 89.082 198.83 198.85 198.83 107.43 0 195.02-85.27 198.7-191.87 14.305-3.918 28.852-7.707 43.055-11.695 13.277-6.6016 17.504-20.195 11.098-30.645-11.453-15.258-30.98-27.371-52.82-30.352-4.1211-0.5625-8.3438-0.72266-12.574-0.59375-27.316-77.262-100.93-132.65-187.45-132.65zm-22.34 10.809c-35.414 20.238-59.457 47.25-74.566 79.207h-57.996c30.215-42.973 77.773-72.766 132.57-79.207zm44.68 0c54.793 6.4414 102.35 36.234 132.57 79.207h-57.996c-15.109-31.957-39.152-58.969-74.566-79.207zm-27.074 1.332v77.875h-81.965c16.203-32.203 42.367-58.77 81.965-77.875zm9.4688 0c39.598 19.105 65.762 45.668 81.965 77.875h-44.09l-11.391-8.5859c-1.707-1.3711-3.168-1.0352-4.7344-0.59375-7.2188 3.0898-14.5 6.2656-21.75 9.1797zm23.082 78.465 86.699 65.141c-15.836 6.1875-32.48 12.824-50.156 20.133l-61.398-74.617zm-189.08 8.8828h60.215c-11.664 28.578-16.723 60.656-17.164 94.75h-71.016c0.85156-34.699 10.902-67.098 27.961-94.75zm70.129 0h81.668c0.44922 3.1094 2.7031 4.9609 4.7344 7.4023v87.348h-104.01c0.43359-34.688 5.5273-66.68 17.605-94.75zm146.47 0h35.805c4.7969 11.148 8.5039 22.926 11.246 35.234zm45.719 0h60.215c6.582 10.672 12.051 22.109 16.422 34.051-19.219 5.6719-37.484 12.215-52.82 18.062l-11.391-8.5859c-2.7734-15.203-6.8164-29.777-12.43-43.527zm-96.316 18.949 50.453 61.293c-11.398 4.7383-23.027 9.6602-34.621 14.508h-15.832zm193.96 24.281c19.082 2.7344 36.516 13.508 46.309 26.352 2.9297 7.9648-0.22266 12.824-7.25 16.582l-325.49 88.238-28.852-49.301 16.422-9.7695 25.594 25.613c1.293 1.2695 3.3438 1.6914 5.0312 1.0352 83.422-33.027 198.45-84.785 249.15-98.602 6.5547-1.2656 13.457-1.375 19.086-0.14844zm-387.93 60.996h71.016c0.050782 3.5469 0.28125 7.1328 0.44531 10.66l-7.6953 4.5898c-2.1055 1.2266-2.9414 4.2266-1.7773 6.3672l12.723 21.91c2.8906 17.77 7.5547 34.945 14.352 51.227h-61.105c-17.062-27.648-27.113-60.051-27.961-94.75zm80.484 0h104.01v1.0352c-22.688 9.4648-44.918 18.656-65.395 26.797l-26.039-26.059c-1.4727-1.4844-3.9727-1.8047-5.7695-0.73828l-6.6562 3.9961c-0.0625-1.7539-0.10547-3.5312-0.14844-5.0352zm297.68 4.8867c-1.6367 32.84-11.414 63.527-27.668 89.867h-55.039l34.473-76.836zm-59.922 16.285-37.434 83.055h-15.832v-68.695zm-62.73 17.027v56.555h-61.547v-39.824zm-71.016 19.246v37.309h-85.516c-3.543-8.0469-6.4258-16.332-8.8789-24.871l4.8828 8.2891c1.0742 1.7422 3.3594 2.6328 5.3281 2.0742zm-150.17 46.785h59.031c15.141 31.512 38.809 58.926 73.531 79.059-54.793-6.4375-102.35-36.098-132.57-79.059zm69.242 0h80.93v77.727c-38.75-18.812-64.641-45.855-80.93-77.727zm90.398 0h61.547v4.7383c0 2.4805 2.2539 4.7383 4.7344 4.7383h9.4688c-16.418 27.75-40.91 51.336-75.75 68.25zm97.203 0h52.965c-30.215 42.961-77.773 72.617-132.57 79.059 31.152-18.062 53.32-42.098 68.5-69.582h3.8477c1.8086 0 3.5547-1.1602 4.2891-2.8125z" id="svg_1" class="selected" fill-opacity="1" fill="#5d4b85"/></g></svg>