<svg xmlns="http://www.w3.org/2000/svg" width="256" height="256" fill="#000000"><rect id="backgroundrect" width="100%" height="100%" x="0" y="0" fill="none" stroke="none"/><g class="currentLayer" style=""><title>Layer 1</title><rect width="256" height="256" fill="none" id="svg_1" class="selected" stroke="#5d4b85" stroke-opacity="1" opacity="0"/><line x1="144" y1="224" x2="112" y2="224" fill="none" stroke="#5d4b85" stroke-linecap="round" stroke-linejoin="round" stroke-width="16" id="svg_2" class="" stroke-opacity="1"/><path d="M123,19.8C104,35,40.5,95.8,96,192h64c54.4-96.2-8.2-156.9-27-172.2A7.8,7.8,0,0,0,123,19.8Z" fill="none" stroke="#5d4b85" stroke-linecap="round" stroke-linejoin="round" stroke-width="16" id="svg_3" class="" stroke-opacity="1"/><path d="M73.9,111.4,42.5,149a7.6,7.6,0,0,0-1.6,6.8l12.3,55.7A8,8,0,0,0,66,216l30-24" fill="none" stroke="#5d4b85" stroke-linecap="round" stroke-linejoin="round" stroke-width="16" id="svg_4" class="" stroke-opacity="1"/><path d="M181.5,110.6l32,38.4a7.6,7.6,0,0,1,1.6,6.8l-12.3,55.7A8,8,0,0,1,190,216l-30-24" fill="none" stroke="#5d4b85" stroke-linecap="round" stroke-linejoin="round" stroke-width="16" id="svg_5" class="" stroke-opacity="1"/><circle cx="128" cy="96" r="12" id="svg_6" class="" stroke="#5d4b85" stroke-opacity="1" fill-opacity="1" fill="#5d4b85"/></g></svg>